<?xml version="1.0" encoding="iso-8859-1"?>
<!-- Generator: Adobe Illustrator 17.1.0, SVG Export Plug-In . SVG Version: 6.00 Build 0)  -->
<!DOCTYPE svg PUBLIC "-//W3C//DTD SVG 1.1//EN" "http://www.w3.org/Graphics/SVG/1.1/DTD/svg11.dtd">
<svg version="1.1" id="Capa_1" xmlns="http://www.w3.org/2000/svg" xmlns:xlink="http://www.w3.org/1999/xlink" x="0px" y="0px"
	 viewBox="0 0 222.347 222.347" style="enable-background:new 0 0 222.347 222.347;" xml:space="preserve">
<path d="M61.556,146.821c0,7.547-6.141,13.688-13.688,13.688s-13.688-6.14-13.688-13.688s6.141-13.688,13.688-13.688
	S61.556,139.274,61.556,146.821z M181.207,133.134c-7.547,0-13.688,6.14-13.688,13.688s6.141,13.688,13.688,13.688
	c7.547,0,13.688-6.14,13.688-13.688S188.754,133.134,181.207,133.134z M208.743,96.625l-44.125-5.806L150.27,69.48
	c-3.218-4.785-8.581-7.642-14.347-7.642H59.901c-7.643,0-14.547,4.821-17.181,11.996l-7.11,19.377l-22.511,2.834
	c-8.026,1.01-13.754,8.113-13.039,16.17l3.103,35.046c0.229,2.581,2.39,4.559,4.981,4.559h16.573c-0.348-1.613-0.536-3.285-0.536-5
	c0-13.061,10.626-23.688,23.688-23.688s23.688,10.626,23.688,23.688c0,1.715-0.188,3.387-0.536,5h87.035
	c-0.348-1.613-0.536-3.285-0.536-5c0-13.061,10.626-23.688,23.688-23.688c13.061,0,23.688,10.626,23.688,23.688
	c0,1.206-0.092,2.39-0.267,3.548l10.674-0.509c2.53-0.121,4.571-2.115,4.749-4.642l2.258-31.98
	C222.89,104.999,216.931,97.702,208.743,96.625z"/>
<g>
</g>
<g>
</g>
<g>
</g>
<g>
</g>
<g>
</g>
<g>
</g>
<g>
</g>
<g>
</g>
<g>
</g>
<g>
</g>
<g>
</g>
<g>
</g>
<g>
</g>
<g>
</g>
<g>
</g>
</svg>
