<svg width="182" height="34" viewBox="0 0 182 34" fill="none" xmlns="http://www.w3.org/2000/svg">
<path d="M37.5 23.5C51.1 40.7 64.1667 30.6667 69 23.5" stroke="black"/>
<path d="M165 24.1841C183.667 18.1841 201.2 6.38411 122 7.18411C119.6 -4.01589 92.3333 2.51743 79 7.1841V24.1841H165Z" stroke="black"/>
<path d="M154 24C133.6 41.2 123.167 31.1667 120.5 24M79 7C43 11.4 28 8.83333 25 7C13.6667 9.5 -2.2 16.4 25 24H38H64H67.5H79" stroke="black"/>
<path d="M79 8C103.8 12.4 118.333 9.83333 122.5 8" stroke="black"/>
<path d="M167 9C165.4 21 175.333 19 180.5 16.5" stroke="black"/>
<path d="M10.708 17.4375C8.17403 17.4375 5.6401 17.4375 3.10618 17.4375C1.33283 17.4375 1.3785 17.6275 1.3785 19.3571C1.3785 19.8702 1.05614 22.9968 1.53207 23.2348C2.74388 23.8407 5.51804 23.3116 6.90707 23.3116C8.40439 23.3116 9.90171 23.3116 11.399 23.3116C14.1633 23.3116 16.9276 23.3116 19.6919 23.3116" stroke="black" stroke-linecap="round"/>
<path d="M1.37851 20.5473C5.34183 21.7668 10.9557 20.8928 15.1999 20.8928" stroke="black" stroke-linecap="round"/>
<path d="M43.1883 24.3482C44.5546 26.2457 47.0641 26.3116 48.7937 27.7268C50.1777 28.8591 52.4023 28.8402 54.0919 28.8402C57.0467 28.8402 61.8473 28.1366 61.8473 24.3482" stroke="black" stroke-linecap="round"/>
<path d="M126.462 24.6937C126.632 26.2224 128.933 28.0607 130.263 28.6866C131.826 29.4219 135.176 28.8402 136.752 28.8402C140.255 28.8402 143.18 29.1345 144.43 25.3848" stroke="black" stroke-linecap="round"/>
</svg>
